# xmcd
# Copyright (C) 1995-1998 Ti Kan
#
# Track frame offsets:
#       150
#       15789
#       35220
#       50766
#       71353
#       78402
#       91750
#       104860
#       122290
#       141719
#       161939
#       184585
#       236414
#
# Disc length: 4059 seconds
#
# Revision: 2
# Processed by: cddbd v1.5.1PL2 Copyright (c) Steve Scherf et al.
# Submitted via: CD-Transfer v1.0
#
DISCID=ae0fd90d
DTITLE=Signorino Tj - Yes No Maybe
DYEAR=2006
DGENRE=
TTITLE0=Home At Last
TTITLE1=Everybody Loves Her
TTITLE2=I Don't Want To Fall Asleep
TTITLE3=Lights Down Low
TTITLE4=One Little Problem
TTITLE5=A-A-Ah (Remix Amour)
TTITLE6=Love (Live In St. Tropez)
TTITLE7=Miss Andress
TTITLE8=The Beginning Of Forever
TTITLE9=Girlfriend
TTITLE10=Angel
TTITLE11=Come Back To Bed
TTITLE12=Data Track
EXTD=
EXTT0=
EXTT1=
EXTT2=
EXTT3=
EXTT4=
EXTT5=
EXTT6=
EXTT7=
EXTT8=
EXTT9=
EXTT10=
EXTT11=
EXTT12=
PLAYORDER=
